# xmcd
#
# Track frame offsets:
#	150
#	14990
#	36260
#	56795
#	76910
#	97715
#	117567
#	134872
#	155675
#	171100
#	189307
#	206687
#
# Disc length: 2956 seconds
#
# Revision: 3
# Processed by: cddbd v1.5.2PL0 Copyright (c) Steve Scherf et al.
# Submitted via: EasyCDDAExtractor 15.3.0.1
#
DISCID=ac0b8a0c
DTITLE=Pandora - Confesiones
DYEAR=1995
DGENRE=Latin
TTITLE0=Lo Eres Todo
TTITLE1=Seria Capaz
TTITLE2=No Quiero Verte Mas
TTITLE3=Que Sabes De Amor
TTITLE4=Me Equivoque Al Dejarte
TTITLE5=Confesion
TTITLE6=No Me Vuelvas A Buscar
TTITLE7=Que Pena Me Da
TTITLE8=Tu Estupido Rencor
TTITLE9=Y Ven
TTITLE10=Prohibiciones
TTITLE11=Ave Maria
EXTD=
EXTT0=
EXTT1=
EXTT2=
EXTT3=
EXTT4=
EXTT5=
EXTT6=
EXTT7=
EXTT8=
EXTT9=
EXTT10=
EXTT11=
PLAYORDER=
